<svg xmlns="http://www.w3.org/2000/svg" width="171.813" height="69.406" viewBox="0 0 171.813 69.406">
  <metadata><?xpacket begin="﻿" id="W5M0MpCehiHzreSzNTczkc9d"?>
<x:xmpmeta xmlns:x="adobe:ns:meta/" x:xmptk="Adobe XMP Core 5.6-c142 79.160924, 2017/07/13-01:06:39        ">
   <rdf:RDF xmlns:rdf="http://www.w3.org/1999/02/22-rdf-syntax-ns#">
      <rdf:Description rdf:about=""/>
   </rdf:RDF>
</x:xmpmeta>
                                                                                                    
                                                                                                    
                                                                                                    
                                                                                                    
                                                                                                    
                                                                                                    
                                                                                                    
                                                                                                    
                                                                                                    
                                                                                                    
                                                                                                    
                                                                                                    
                                                                                                    
                                                                                                    
                                                                                                    
                                                                                                    
                                                                                                    
                                                                                                    
                                                                                                    
                                                                                                    
                           
<?xpacket end="w"?></metadata>
<defs>
    <style>
      .cls-1 {
        fill: #fff;
        fill-rule: evenodd;
      }
    </style>
  </defs>
  <path id="bi_copy" data-name="bi copy" class="cls-1" d="M145.971,97.351m-55.22,9.855-2.9-.579V74.145l4.987-1.107,23.641-1.308-5.083-.071c5.255-.473,11.985-1.088,13.879-1.243,1.515-.125,3.028-0.267,4.543-0.4q1.663-.146,3.331-0.269c0.477-.035.957-0.062,1.434-0.115,0.045-.005.092-0.013,0.138-0.016,0,0-9.277-.041-12.3-0.192l7.069-1.08H68.161a13.323,13.323,0,0,1-3.087-.53s-1.558-.538-2.8-0.945l1.21,1.038-3.425-1.691c2.08,2.018,8.7,10.978,8.728,11.508l0.531-2.2,1.236-.763,1.691-.23c1.043-.112,8.174-0.615,8.174-0.615v32.707l-1.615.579-0.525.849-1.037.332c0.562,0.01,17.687,0,17.687,0a36.839,36.839,0,0,1-3.847-.861C90.9,107.434,90.927,107.317,90.751,107.206Zm92.026,19.52L152.655,84.711q4.812-7.024,9.66-14.022l1.253-2.155a21.266,21.266,0,0,0,.307-2.318l2.306-4.751s-4.331,6.131-6.863,9.251c-1.075,1.344,1.066-1.95,3.752-6.023l1.612-2.267s3.036-5.106,3.051-5.112a0.029,0.029,0,0,0-.015.006L154.692,73.638l0.115-1.376s-36.543,47.726-40.728,52.795a7.989,7.989,0,0,1,1.353-.713c0.124-.025.908-0.431,1.23-0.538l0.692-.231c0.076-.025.189,0.241,0.266,0.226,0.63-.385,5.143-4.121,5.46-4.341,0.079-.054.146-0.1,0.208-0.132a0.56,0.56,0,0,1,.135-0.061l-0.18.479c-0.03.04-1.053,1.468-1.874,2.615a2.473,2.473,0,0,1,.42.03c0.222-.243.443-0.484,0.665-0.711,0.61-.625,2.994-3.028,3.6-3.537a23.5,23.5,0,0,1,3.39-2.122s15.234-21.438,15.33-21.508c0,0,9.811,11.621,9.845,11.655H141.928l1.368-3.1v-2.6l-9.382,13.091,1.1-.428,0.847-.059,2.479-1.971-0.712,1.357s1.115-.9,1.948-1.742h16.353l2.419,0.868,2.694,1.818h0c2.968,3.276,6.746,7.417,6.748,7.419a5.1,5.1,0,0,1-.443-1.179c-0.658-1.639-1.192-3.05-1.192-3.05s1.554,1.56,1.915,1.917c0.747,0.741,2.207,2.141,2.207,2.141,0.607,0.289,1.272.494,1.9,0.741l1.719,1.676c0.067-.117.235-0.419,0.252-0.453,0,0,3.614,2.585,3.924,2.667a41.186,41.186,0,0,0-3.757-5.49Zm-56.4-27.916a51.849,51.849,0,0,1-6.057-3.421c3.306-.842,8.1-2.062,9.787-4.3,1.613-2.14,1.7-4.776-.092-6.642-5.173-5.383-15.147-4.329-20.855-3.151L98.875,78.547l0.371,0.636-3-.91,2.744,1.43,0.676,0.352L99.954,80.3l-0.2.31,1.959,1.454v3.8l-0.02.02c0,0.769,0,.739,0,1.669,0,2.414.009,17.143,0,18.688,0,0-.395.375-0.79,0.792l0.216,0.646s-1.659.6-2.092,0.7h15.481l-3.133-.973-1.695-.317a4.05,4.05,0,0,1-.541-1.421v-1.339c0.023-.015.047-0.029,0.069-0.045V93.825a112.832,112.832,0,0,0,17.274,12.649l4.588-5.928A33.74,33.74,0,0,1,126.372,98.81Zm-15.664-11.4c-0.541-.6-1.034-1.15-1.5-1.628,1.731-.522,14.686-2.851,15.306,1.944,0.129,2.422-6.27,3.463-9.249,3.928A60.449,60.449,0,0,1,110.708,87.41Zm116.228,19.977-0.506-.6-0.011-34.358,0.053-.789,1.265-.842,1.191-1.019-0.747.1,0.286-.243,3.42-1.782-3,.91,0.371-.636-12.754,3.413,0.51,0.474c-0.054.13-16.769,22.931-24.846,33.975V85.9h0V82.063l1.958-1.454-0.2-.31,0.285-.243,3.42-1.782-3,.91,0.371-.636-9.984,2.672,0-.01-1.839.473,1.482,0.465v8.083a77.438,77.438,0,0,1-8.712,4.9c-1.085.491-2.174,0.938-3.259,1.343V85.537l0.309-2.786,2.184-1H163.914l1.011,1.034,0.33,0.954s0.01,12.9,0,15.832c1.969,2.71,4.085,5.833,6.25,8.814,0.4-.009.8,0.01,1.193,0v-5.6a56.8,56.8,0,0,0,5.74-2.242l0.044-.02c2.013-.953,4.084-2.058,6.187-3.3v7.068l0.017,0.011c0,1.719,0,2.928,0,2.928l-0.528.521-1.23.635h17.981a5.731,5.731,0,0,1-1.75-.533l0.223-1.429c0.674-.85,4.612-6.375,5.963-8.238h13.6v8.334l-0.335.441-0.79.528-0.4.5-0.692.4H229.1l-2.334-.812Zm-8.063-27.715,0.1-.05-0.021,12.613H209.76Q214.319,85.952,218.873,79.671Z" transform="translate(-60.063 -57.313)"/>
</svg>
